<svg xmlns="http://www.w3.org/2000/svg" version="1.1" xmlns:xlink="http://www.w3.org/1999/xlink" xmlns:svgjs="http://svgjs.dev/svgjs" width="2000" height="1252" viewBox="0 0 2000 1252"><g transform="matrix(1,0,0,1,-1.2121212121212466,-2.01935483870966)"><svg viewBox="0 0 396 248" data-background-color="#5e1914" preserveAspectRatio="xMidYMid meet" height="1252" width="2000" xmlns="http://www.w3.org/2000/svg" xmlns:xlink="http://www.w3.org/1999/xlink"><g id="tight-bounds" transform="matrix(1,0,0,1,0.2400000000000091,0.4000000000000057)"><svg viewBox="0 0 395.52 247.2" height="247.2" width="395.52"><g><svg></svg></g><g><svg viewBox="0 0 395.52 247.2" height="247.2" width="395.52"><g transform="matrix(1,0,0,1,75.54432,111.64952334952093)"><svg viewBox="0 0 244.43135999999998 23.900953300958125" height="23.900953300958125" width="244.43135999999998"><g><svg viewBox="0 0 244.43135999999998 23.900953300958125" height="23.900953300958125" width="244.43135999999998"><g><svg viewBox="0 0 244.43135999999998 23.900953300958125" height="23.900953300958125" width="244.43135999999998"><g><svg viewBox="0 0 244.43135999999998 23.900953300958125" height="23.900953300958125" width="244.43135999999998"><g id="textblocktransform"><svg viewBox="0 0 244.43135999999998 23.900953300958125" height="23.900953300958125" width="244.43135999999998" id="textblock"><g><svg viewBox="0 0 244.43135999999998 23.900953300958125" height="23.900953300958125" width="244.43135999999998"><g transform="matrix(1,0,0,1,0,0)"><svg width="244.43135999999998" viewBox="1.05 -36.75 380.92 37.25" height="23.900953300958125" data-palette-color="#ffffff"><path d="M22.2 0L13.35-17.15 11.05-22.35 10-17.15 6.6 0 1.05 0 8.65-36.75 9.25-36.75 19.35-16.9 22.35-10.25 25.35-16.9 35.25-36.75 35.8-36.75 43.7 0 38.2 0 34.5-17.15 33.4-22.35 31.4-17.15 22.5 0 22.2 0ZM59.15 0.5Q55.05 0.5 52.3-1.13 49.55-2.75 48.25-5.48 46.95-8.2 46.95-11.45L46.95-11.45Q46.95-15.1 48.47-17.85 50-20.6 52.7-22.08 55.4-23.55 58.8-23.55L58.8-23.55Q64.1-23.55 66.67-20.63 69.25-17.7 69.25-12.4L69.25-12.4Q69.25-11.05 69.1-9.6L69.1-9.6 52.6-9.6Q53.15-6.55 54.77-5.2 56.4-3.85 59.3-3.85L59.3-3.85Q61.7-3.85 63.25-4.25 64.8-4.65 66.1-5.35L66.1-5.35 67.75-1.5Q66.5-0.7 64.35-0.1 62.2 0.5 59.15 0.5L59.15 0.5ZM52.6-13.35L64-13.35Q64.05-16.45 62.65-17.73 61.25-19 58.65-19L58.65-19Q53.4-19 52.6-13.35L52.6-13.35ZM75.14 0L75.14-36.75 80.39-36.75 80.39-22.95 80.19-18.7Q81.14-20.8 83.25-22.18 85.34-23.55 88.14-23.55L88.14-23.55Q91.69-23.55 93.59-22.08 95.5-20.6 96.14-17.95 96.8-15.3 96.8-11.05L96.8-11.05 96.8 0 91.44 0 91.44-11.1Q91.44-14 91.12-15.65 90.8-17.3 89.82-18.15 88.84-19 87-19L87-19Q85.5-19 83.97-18.1 82.44-17.2 81.44-15.48 80.44-13.75 80.44-11.4L80.44-11.4 80.44 0 75.14 0ZM103.49 0L103.49-22.95 108.89-22.95 108.89-18.45Q109.69-20.75 111.49-22.15 113.29-23.55 115.59-23.55L115.59-23.55Q117.19-23.55 117.79-23.25L117.79-23.25 117.04-17.8Q116.59-18.1 115.09-18.1L115.09-18.1Q112.74-18.1 110.82-16.6 108.89-15.1 108.89-11.8L108.89-11.8 108.89 0 103.49 0ZM131.74 0.5Q128.64 0.5 126.02-0.98 123.39-2.45 121.82-5.18 120.24-7.9 120.24-11.55L120.24-11.55Q120.24-15.15 121.62-17.85 122.99-20.55 125.54-22.05 128.09-23.55 131.54-23.55L131.54-23.55Q133.54-23.55 135.29-22.85 137.04-22.15 138.24-21.13 139.44-20.1 139.84-19.1L139.84-19.1 139.94-22.95 145.09-22.95 145.09 0 139.99 0 139.89-4.05Q139.04-2.25 136.79-0.88 134.54 0.5 131.74 0.5L131.74 0.5ZM132.64-4Q135.49-4 137.44-5.98 139.39-7.95 139.39-11.15L139.39-11.15 139.39-11.5Q139.39-13.65 138.49-15.35 137.59-17.05 136.04-18 134.49-18.95 132.64-18.95L132.64-18.95Q129.44-18.95 127.69-16.88 125.94-14.8 125.94-11.5L125.94-11.5Q125.94-8.15 127.67-6.08 129.39-4 132.64-4L132.64-4ZM152.34 0L152.34-22.95 157.64-22.95 157.69-18.75Q158.64-20.85 160.69-22.2 162.74-23.55 165.49-23.55L165.49-23.55Q169.04-23.55 170.94-22.08 172.84-20.6 173.49-17.95 174.14-15.3 174.14-11.05L174.14-11.05 174.14 0 168.74 0 168.74-10.9Q168.74-15.25 167.89-17.18 167.04-19.1 164.39-19.1L164.39-19.1Q162.89-19.1 161.34-18.18 159.79-17.25 158.76-15.5 157.74-13.75 157.74-11.4L157.74-11.4 157.74 0 152.34 0ZM211.98 0L203.13-17.15 200.83-22.35 199.78-17.15 196.38 0 190.83 0 198.43-36.75 199.03-36.75 209.13-16.9 212.13-10.25 215.13-16.9 225.03-36.75 225.58-36.75 233.48 0 227.98 0 224.28-17.15 223.18-22.35 221.18-17.15 212.28 0 211.98 0ZM248.78 0.5Q245.23 0.5 242.48-1.1 239.73-2.7 238.23-5.45 236.73-8.2 236.73-11.55L236.73-11.55Q236.73-14.85 238.21-17.6 239.68-20.35 242.43-21.95 245.18-23.55 248.78-23.55L248.78-23.55Q252.38-23.55 255.11-21.95 257.83-20.35 259.31-17.6 260.78-14.85 260.78-11.55L260.78-11.55Q260.78-8.2 259.28-5.45 257.78-2.7 255.06-1.1 252.33 0.5 248.78 0.5L248.78 0.5ZM248.93-3.9Q251.83-3.9 253.51-6.05 255.18-8.2 255.18-11.45L255.18-11.45Q255.18-14.7 253.38-16.93 251.58-19.15 248.63-19.15L248.63-19.15Q245.78-19.15 244.06-16.95 242.33-14.75 242.33-11.45L242.33-11.45Q242.33-8.25 244.18-6.08 246.03-3.9 248.93-3.9L248.93-3.9ZM276.68 0.5Q273.58 0.5 270.95-0.98 268.33-2.45 266.75-5.18 265.18-7.9 265.18-11.55L265.18-11.55Q265.18-15.15 266.55-17.85 267.93-20.55 270.48-22.05 273.03-23.55 276.48-23.55L276.48-23.55Q278.48-23.55 280.23-22.85 281.98-22.15 283.18-21.13 284.38-20.1 284.78-19.1L284.78-19.1 284.88-22.95 290.03-22.95 290.03 0 284.93 0 284.83-4.05Q283.98-2.25 281.73-0.88 279.48 0.5 276.68 0.5L276.68 0.5ZM277.58-4Q280.43-4 282.38-5.98 284.33-7.95 284.33-11.15L284.33-11.15 284.33-11.5Q284.33-13.65 283.43-15.35 282.53-17.05 280.98-18 279.43-18.95 277.58-18.95L277.58-18.95Q274.38-18.95 272.63-16.88 270.88-14.8 270.88-11.5L270.88-11.5Q270.88-8.15 272.6-6.08 274.33-4 277.58-4L277.58-4ZM294.73 0L305.18-16.85 306.43-18.65 300.88-18.5 296.93-18.5 296.93-22.95 314.78-22.95 304.43-6.05 303.18-4.15 308.58-4.35 314.38-4.45 314.38 0 294.73 0ZM330.72 0.5Q326.62 0.5 323.87-1.13 321.12-2.75 319.82-5.48 318.52-8.2 318.52-11.45L318.52-11.45Q318.52-15.1 320.05-17.85 321.57-20.6 324.27-22.08 326.97-23.55 330.37-23.55L330.37-23.55Q335.67-23.55 338.25-20.63 340.82-17.7 340.82-12.4L340.82-12.4Q340.82-11.05 340.67-9.6L340.67-9.6 324.17-9.6Q324.72-6.55 326.35-5.2 327.97-3.85 330.87-3.85L330.87-3.85Q333.27-3.85 334.82-4.25 336.37-4.65 337.67-5.35L337.67-5.35 339.32-1.5Q338.07-0.7 335.92-0.1 333.77 0.5 330.72 0.5L330.72 0.5ZM324.17-13.35L335.57-13.35Q335.62-16.45 334.22-17.73 332.82-19 330.22-19L330.22-19Q324.97-19 324.17-13.35L324.17-13.35ZM346.47 0L346.47-22.95 351.77-22.95 351.82-18.75Q352.77-20.85 354.82-22.2 356.87-23.55 359.62-23.55L359.62-23.55Q363.17-23.55 365.07-22.08 366.97-20.6 367.62-17.95 368.27-15.3 368.27-11.05L368.27-11.05 368.27 0 362.87 0 362.87-10.9Q362.87-15.25 362.02-17.18 361.17-19.1 358.52-19.1L358.52-19.1Q357.02-19.1 355.47-18.18 353.92-17.25 352.9-15.5 351.87-13.75 351.87-11.4L351.87-11.4 351.87 0 346.47 0ZM375.62 0L375.62-22.95 381.22-22.95 381.22 0 375.62 0ZM378.37-27.25Q376.82-27.25 375.77-28.3 374.72-29.35 374.72-30.9L374.72-30.9Q374.72-32.3 375.77-33.3 376.82-34.3 378.37-34.3L378.37-34.3Q379.87-34.3 380.92-33.3 381.97-32.3 381.97-30.9L381.97-30.9Q381.97-29.35 380.94-28.3 379.92-27.25 378.37-27.25L378.37-27.25Z" opacity="1" transform="matrix(1,0,0,1,0,0)" fill="#000000" class="wordmark-text-0" data-fill-palette-color="primary" id="text-0"></path></svg></g></svg></g></svg></g></svg></g></svg></g></svg></g></svg></g><path d="M170.874 105.65L170.874 40.416 4.506 40.416 4.506 206.784 170.874 206.784 170.874 141.55 168.719 141.55 168.719 204.629 6.662 204.629 6.662 42.571 168.719 42.571 168.719 105.65Z" fill="#000000" stroke="transparent" data-fill-palette-color="tertiary"></path></svg></g><defs></defs></svg><rect width="395.52" height="247.2" fill="none" stroke="none" visibility="hidden"></rect></g></svg></g></svg>